<svg xmlns="http://www.w3.org/2000/svg" width="226.777" height="226.777" viewBox="0 0 226.777 226.777"><path d="M195.817 34.467V32.26c0-21.179-45.6-32.26-90.648-32.26S14.521 11.081 14.521 32.26V59.3a14.866 14.866 0 0 0 2.137 7.6C6.355 71.947 0 78.442 0 86.346v27.042c0 7.9 6.355 14.4 16.658 19.439a14.868 14.868 0 0 0-2.137 7.6v54.085c0 21.178 45.6 32.26 90.648 32.26s90.648-11.082 90.648-32.26V161.9c12.958-5.279 21.233-12.455 21.233-21.467v-27.045a15.487 15.487 0 0 0-3.411-9.489c8.2-4.742 13.138-10.6 13.138-17.553V59.3c0-11.1-12.544-19.422-30.96-24.833zM126.4 162.258c-47.257 0-78.175-11.765-80.915-20.575a247.25 247.25 0 0 0 45.162 3.965c5.986 0 11.979-.2 17.876-.591 5.9.389 11.891.591 17.877.591 32.58 0 65.438-5.8 81.137-17.021v11.8c.002 8.905-31.606 21.831-81.137 21.831zm-21.233 54.087c-49.529 0-81.136-12.928-81.136-21.828v-11.8c15.7 11.22 48.556 17.02 81.136 17.02s65.437-5.8 81.136-17.02v11.8c.002 8.9-31.603 21.828-81.134 21.828zM24.033 59.3V47.5c15.7 11.22 48.556 17.02 81.136 17.02s65.437-5.8 81.136-17.02v11.8c0 8.9-31.607 21.828-81.136 21.828S24.033 68.2 24.033 59.3zm81.136 130c-49.529 0-81.136-12.927-81.136-21.827v-11.8c15.7 11.22 48.556 17.02 81.136 17.02q5.316 0 10.617-.214 5.292.206 10.616.214c21.524 0 43.161-2.536 59.9-7.488v2.272c.003 8.897-31.602 21.823-81.133 21.823zM9.512 101.584c15.7 11.221 48.557 17.02 81.137 17.02 7.64 0 15.292-.326 22.74-.959 7.447.633 15.1.959 22.739.959a260.224 260.224 0 0 0 34.578-2.257c-5.872 8.548-35.8 18.869-80.057 18.869-49.529 0-81.137-12.928-81.137-21.828zm126.616 6.589c-49.121 0-80.6-12.714-81.111-21.605 14.987 3.305 32.6 4.994 50.152 4.994a273.4 273.4 0 0 0 15.48-.445c5.121.291 10.3.445 15.479.445 32.58 0 65.439-5.8 81.137-17.021v11.805c0 8.9-31.608 21.827-81.137 21.827z"/></svg>