<svg xmlns="http://www.w3.org/2000/svg" width="226.777" height="226.777" viewBox="0 0 226.777 226.777"><path d="M124.469 135.692c-9.844-12.863-19.951-25.454-29.843-38.263-14.583 11.227-29.135 22.878-43.6 33.971-3.317-9.85-3.045-23.544-.656-33.534a63.9 63.9 0 0 1 12.663-25.461 65.938 65.938 0 0 1 21.11-17.022 64.93 64.93 0 0 1 28.826-6.838 66.08 66.08 0 0 0-4.077-5.383C99.04 30.456 89.056 17.786 79.12 5.263a107.985 107.985 0 0 0-19.143 8.074A112.844 112.844 0 0 0 2.326 90.228a117.37 117.37 0 0 0 .363 48.228 114.818 114.818 0 0 0 16.16 37.609 111.2 111.2 0 0 0 26.059 27.788 113.15 113.15 0 0 0 35.741 18.114 114.565 114.565 0 0 0 44.621 4.146c-14.442-18.609-29.534-37.856-44.257-56.522 14.528-11.257 28.887-22.678 43.456-33.899zm100.453-43.428a111.88 111.88 0 0 0-14.559-37.9 115.364 115.364 0 0 0-24.385-28.153A112.663 112.663 0 0 0 115.443.025a75.06 75.06 0 0 0-3.856 0C108.17.116 104.628.2 101.466.5c.607.788 1.015 1.218 1.458 1.777 14.394 18.325 28.7 36.759 43.019 55.067q-21.8 16.911-43.529 33.9c9.874 12.845 19.921 25.533 29.916 38.263 14.47-11.307 29.07-22.888 43.53-33.969 3.185 9.735 3.021 23.248.656 33.243A63.582 63.582 0 0 1 164 154.024a64.493 64.493 0 0 1-49.717 24.224c2.64 3.649 5.479 7.2 8.3 10.766 8.517 10.783 16.882 21.75 25.477 32.371a112.23 112.23 0 0 0 34.431-18.041 113.372 113.372 0 0 0 41.339-63.724 119.512 119.512 0 0 0 1.092-47.356z"/></svg>